<svg width="24" height="24" viewBox="0 0 24 24" fill="none" xmlns="http://www.w3.org/2000/svg">
<path fill-rule="evenodd" clip-rule="evenodd" d="M13.4719 3.08467C13.6863 2.87038 13.977 2.75 14.2801 2.75C14.5833 2.75 14.874 2.87038 15.0884 3.08467L16.7107 4.70889L16.7131 4.71125C16.9164 4.91392 17.0359 5.18573 17.0479 5.4726C17.06 5.76059 16.9627 6.04249 16.7757 6.2618L16.7739 6.26388C16.6558 6.40158 16.594 6.5788 16.6009 6.76008C16.6078 6.94099 16.6826 7.11265 16.8104 7.24087C16.9389 7.36854 17.1107 7.44313 17.2917 7.44975C17.473 7.45638 17.6501 7.39434 17.7876 7.27603L17.7908 7.27325C18.0101 7.0862 18.292 6.98895 18.58 7.00099C18.867 7.01299 19.1389 7.13263 19.3416 7.33602L19.3437 7.33821L20.966 8.96041C21.1802 9.17479 21.3008 9.46567 21.3008 9.7688C21.3008 10.0719 21.1804 10.3627 20.9661 10.577L18.3754 13.1678C18.1854 13.3578 17.9568 13.5045 17.7054 13.5981C17.6119 13.8504 17.4651 14.0798 17.2747 14.2706L10.6298 20.9152C10.4154 21.1295 10.1246 21.25 9.82143 21.25C9.51829 21.25 9.22758 21.1296 9.0132 20.9153L7.39083 19.2929L7.38865 19.2908C7.18525 19.0881 7.06562 18.8162 7.05362 18.5292C7.04157 18.2413 7.13882 17.9593 7.32588 17.74L7.32808 17.7375C7.44628 17.5998 7.50813 17.4226 7.50126 17.2414C7.49438 17.0601 7.41929 16.8881 7.291 16.7598C7.16272 16.6315 6.99072 16.5564 6.80943 16.5495C6.62814 16.5426 6.45094 16.6045 6.31331 16.7227L6.31074 16.7249C6.09143 16.912 5.80953 17.0092 5.52154 16.9972C5.2346 16.9852 4.96275 16.8655 4.76006 16.6622L4.75783 16.66L3.13561 15.0377C2.92133 14.8234 2.80078 14.5325 2.80078 14.2294C2.80078 13.9262 2.92116 13.6355 3.13545 13.4211L9.77956 6.77849C9.96959 6.58883 10.1986 6.44182 10.4497 6.34831C10.5433 6.0958 10.6903 5.86623 10.8811 5.6755L13.4719 3.08467ZM10.4291 6.40691L10.55 6.44717L10.5506 6.44904L10.4286 6.40863L10.4291 6.40691ZM10.5521 6.44952L10.5515 6.44765L11.3779 6.72292L10.5521 6.44952ZM10.8273 7.2754L11.1027 8.10191L11.1046 8.10385L10.8273 7.2754ZM11.1052 8.10544L11.1032 8.10349L11.1434 8.22409L11.1447 8.22364L11.1052 8.10544ZM11.1723 8.21418L5.15572 14.2294L5.69991 14.7736C6.07028 14.613 6.47497 14.5354 6.88521 14.551C7.57036 14.5769 8.2204 14.8607 8.70522 15.3456C9.19003 15.8304 9.47384 16.4804 9.49982 17.1656C9.51538 17.5758 9.43781 17.9805 9.27717 18.3509L9.82144 18.8951L15.8384 12.8786C15.9309 12.6146 16.0814 12.3746 16.279 12.1763C16.4773 11.9774 16.7176 11.8257 16.9823 11.7325L18.9459 9.7688L18.402 9.2249C18.0323 9.38555 17.6283 9.4634 17.2186 9.44841C16.5337 9.42336 15.8836 9.14072 15.3981 8.65701L16.1041 7.94852L15.3968 8.65563C14.9122 8.17093 14.6285 7.52119 14.6024 6.83634C14.5867 6.42605 14.6642 6.02129 14.8248 5.65083L14.2798 5.10521L12.3166 7.06844C12.2241 7.33216 12.0736 7.57197 11.8761 7.77012C11.6777 7.96918 11.4371 8.1209 11.1723 8.21418ZM17.9233 8.74617L17.9264 8.74929L17.9233 8.74617ZM17.0104 11.7228L17.3279 12.6711L17.0119 11.7223L17.0104 11.7228ZM17.6029 13.4969L16.7772 13.2235L17.6036 13.4989L17.6029 13.4969ZM17.6052 13.4994L17.6045 13.4974L17.7266 13.5378L17.726 13.5396L17.6052 13.4994Z" fill="#1F2326"/>
<path fill-rule="evenodd" clip-rule="evenodd" d="M10.8867 6.78219C11.0819 6.58693 11.3985 6.58693 11.5938 6.78219L12.2019 7.39026C12.3971 7.58552 12.3971 7.90211 12.2019 8.09737C12.0066 8.29263 11.69 8.29263 11.4948 8.09737L10.8867 7.4893C10.6914 7.29403 10.6914 6.97745 10.8867 6.78219ZM12.7104 8.60648C12.9056 8.41113 13.2221 8.41099 13.4175 8.60616L13.823 9.0113C14.0184 9.20647 14.0185 9.52306 13.8233 9.71841C13.6281 9.91376 13.3116 9.9139 13.1162 9.71873L12.7107 9.31359C12.5154 9.11842 12.5152 8.80183 12.7104 8.60648ZM14.3322 10.2275C14.5275 10.0323 14.8441 10.0324 15.0393 10.2278L15.4444 10.6333C15.6396 10.8286 15.6395 11.1452 15.4441 11.3404C15.2488 11.5356 14.9322 11.5354 14.737 11.3401L14.3319 10.9346C14.1367 10.7392 14.1368 10.4226 14.3322 10.2275ZM15.9532 11.8491C16.1485 11.6539 16.4651 11.6539 16.6603 11.8491L17.2684 12.4572C17.4637 12.6525 17.4637 12.969 17.2684 13.1643C17.0732 13.3596 16.7566 13.3596 16.5613 13.1643L15.9532 12.5562C15.758 12.361 15.758 12.0444 15.9532 11.8491Z" fill="#1F2326"/>
</svg>
